<svg 
   xmlns="http://www.w3.org/2000/svg" 
   version="1.1" 
   xmlns:xlink="http://www.w3.org/1999/xlink" 
   xmlns:svgjs="http://svgjs.dev/svgjs" 
   width="308.7612359841165" 
   height="304.915625" 
   viewBox="0 0 2000 2000">

   <g 
      transform="matrix(1,0,0,1,-0.28443113772425477,-0.28443113772459583)">

      <svg 
         viewBox="0 0 334 334" 
         data-background-color="#0093fb" 
         preserveAspectRatio="xMidYMid meet" 
         height="2000" 
         width="2000" 
         xmlns="http://www.w3.org/2000/svg" 
         xmlns:xlink="http://www.w3.org/1999/xlink">

         <g 
            id="tight-bounds" 
            transform="matrix(1,0,0,1,0.04749999999998522,0.04750000000001364)">
   
            <svg 
               viewBox="0 0 333.90454557049503 333.90454557049503" 
               height="333.90454557049503" 
               width="333.90454557049503">
               
               <g>
                  <svg></svg>
               </g>
               <g>
                  <svg 
                     viewBox="0 0 333.90454557049503 333.90454557049503" 
                     height="333.90454557049503" 
                     width="333.90454557049503">
                     
                     <g>
                        <path 
                           d="M0 166.952c0-92.205 74.747-166.952 166.952-166.952 92.205 0 166.952 74.747 166.953 166.952 0 92.205-74.747 166.952-166.953 166.953-92.205 0-166.952-74.747-166.952-166.953zM166.952 316.63c82.665 0 149.677-67.013 149.678-149.678 0-82.665-67.013-149.677-149.678-149.677-82.665 0-149.677 67.013-149.677 149.677 0 82.665 67.013 149.677 149.677 149.678z" 
                           data-fill-palette-color="tertiary" 
                           fill="#ffffff" 
                           stroke="transparent">
                        </path>

                        <ellipse 
                           rx="160.27418187383762" 
                           ry="160.27418187383762" 
                           cx="166.95227278524752" 
                           cy="166.95227278524752" 
                           fill="#ffffff" 
                           stroke="transparent" 
                           stroke-width="0" 
                           fill-opacity="1" 
                           data-fill-palette-color="tertiary">
                        </ellipse>
                     </g>

                     <g 
                        transform="matrix(1,0,0,1,66.93503356044867,71.17305217166896)">
                        
                        <svg 
                           viewBox="0 0 200.03447844959769 191.55844122715712" 
                           height="191.55844122715712" 
                           width="200.03447844959769">
                           
                           <g>
                              <svg 
                                 viewBox="0 0 200.03447844959769 191.55844122715712" 
                                 height="191.55844122715712"
                                 width="200.03447844959769">
                                 
                                 <g>
                                    <svg 
                                       viewBox="0 0 200.03447844959769 191.55844122715712" 
                                       height="191.55844122715712" 
                                       width="200.03447844959769">
                                       
                                       <g>
                                          <svg 
                                             viewBox="0 0 200.03447844959769 191.55844122715712" 
                                             height="191.55844122715712" 
                                             width="200.03447844959769">
                                             
                                             <g 
                                                id="textblocktransform">
                                                
                                                <svg 
                                                   viewBox="0 0 200.03447844959769 191.55844122715712" 
                                                   height="191.55844122715712" 
                                                   width="200.03447844959769" 
                                                   id="textblock">
                                                   
                                                   <g>
                                                      <svg 
                                                         viewBox="0 0 200.03447844959769 191.55844122715712" 
                                                         height="191.55844122715712" 
                                                         width="200.03447844959769">
                                                         
                                                         <g 
                                                            transform="matrix(1,0,0,1,0,0)">
                                                            
                                                            <svg 
                                                               width="200.03447844959769" 
                                                               viewBox="-7.699999809265137 -37.650001525878906 41.29999923706055 39.55000305175781" 
                                                               height="191.55844122715712" 
                                                               data-palette-color="#0093fb">
                                                               
                                                               <path 
                                                                  d="M21.5-31.35L21.75-31.15Q21.75-31.05 21.68-30.93 21.6-30.8 20.2-28.1L20.2-28.1Q18.65-25.2 12.05-12.95L12.05-12.95Q19.45-15.7 25.3-21.18 31.15-26.65 31.15-30.8L31.15-30.8Q31.15-33.05 28.95-34.5 26.75-35.95 22.3-35.95 17.85-35.95 12.73-34.08 7.6-32.2 3.7-29.6-0.2-27-2.83-24.25-5.45-21.5-5.45-19.75L-5.45-19.75Q-5.45-17.8-2.33-17.8 0.8-17.8 4.83-19.88 8.85-21.95 12.05-25.4L12.05-25.4Q12.6-26.05 12.75-26.05L12.75-26.05Q13.1-26.05 13.1-25.7L13.1-25.7Q13.1-25.6 12.75-25L12.75-25Q11.1-22.5 5.43-19.13-0.25-15.75-3.98-15.75-7.7-15.75-7.7-18.1L-7.7-18.1Q-7.7-20.2-4.73-23.53-1.75-26.85 2.7-30 7.15-33.15 13.05-35.4 18.95-37.65 23.93-37.65 28.9-37.65 31.25-36.08 33.6-34.5 33.6-32L33.6-32Q33.6-27.65 28.08-22.1 22.55-16.55 14.75-13.2L14.75-13.2Q19.8-13.15 23.15-8.83 26.5-4.5 26.55 1.2L26.55 1.2Q26.55 1.9 26.3 1.9L26.3 1.9Q25.9 1.9 25.75 1.03 25.6 0.15 25.4-0.7 25.2-1.55 24.18-3.7 23.15-5.85 21.78-7.5 20.4-9.15 17.8-10.5 15.2-11.85 11.95-11.85L11.95-11.85 11.4-11.85Q7.8-5.3 5.35-1L5.35-1Q5.05-0.35 4.25 0 3.45 0.35 3.03 0.35 2.6 0.35 2.6 0.1L2.6 0.1 8.75-11.1Q6.75-10.6 4.65-10.35L4.65-10.35Q3.75-10.35 3.75-10.65L3.75-10.65Q3.75-11.2 4.3-11.25L4.3-11.25Q6.6-11.4 9.3-12.1L9.3-12.1 19.35-30.4Q19.5-30.8 20.25-31.08 21-31.35 21.5-31.35L21.5-31.35Z" 
                                                                  opacity="1" 
                                                                  transform="matrix(1,0,0,1,0,0)" 
                                                                  fill="#0093fb" 
                                                                  class="wordmark-text-0" 
                                                                  data-fill-palette-color="quaternary" 
                                                                  id="text-0">
                                                               </path>
                                                            </svg>
                                                         </g>
                                                      </svg>
                                                   </g>
                                                </svg>
                                             </g>
                                          </svg>
                                       </g>

                                       <g>
                                       </g>

                                    </svg>
                                 </g>
                              </svg>
                           </g>
                        </svg>
                     </g>
                  </svg>
               </g>

               <defs>
               </defs>

            </svg>
            
            <rect 
               width="333.90454557049503" 
               height="333.90454557049503" 
               fill="none" 
               stroke="none" 
               visibility="hidden">
            </rect>

         </g>
      </svg>
   </g>
</svg>